<?xml version="1.0" encoding="UTF-8" standalone="no"?>
<svg
	width="738.85938"
	height="397.80859"
	viewBox="0 0 738.85938 397.80859"
	version="1.1"
	xmlns="http://www.w3.org/2000/svg"
	xmlns:svg="http://www.w3.org/2000/svg">
	<defs>
		<radialGradient id="fgGradient" cx="100%" cy="100%" r="141.42%">
			<stop offset="0%" stop-color="#733e0a" />
			<stop offset="100%" stop-color="#fefce8" />
		</radialGradient>
		<radialGradient id="fgGradientReversed" href="#fgGradient" gradientTransform="scale(-1)" />
		<filter id="fgShadow" x="-50%" y="-50%" width="2" height="2">
			<feDropShadow dx="1" dy="1" stdDeviation="1.5" flood-color="#000" />
			<feDropShadow dx="0" dy="0" stdDeviation="24" flood-color="#fff2" />
		</filter>
	</defs>
	<style>
		path {
			stroke: url(#fgGradientReversed);
			stroke-width: 3px;
			stroke-linecap: round;
			stroke-linejoin: round;
			fill: url(#fgGradient);
			filter: url(#fgShadow);
		}

		text {
			font-weight: bold;
			font-size: 352.507px;
			line-height: 1.25;
			font-family: 'Funnel Display';
			-inkscape-font-specification: 'Funnel Display Bold';
			fill: #f00;
			display: none;
		}
	</style>
	<text x="-8.4873285" y="322.2822">gold</text>
	<path
		d="m 449.47846,75.52734 v 246.75391 h 48.7637 V 75.52734 Z m 215.0293,0 v 94.58984 h -1.1758 c -5.0918,-8.81267 -12.338,-15.56944 -21.7382,-20.26953 -9.2044,-4.89593 -20.2681,-7.34375 -33.1934,-7.34375 -16.842,0 -31.3347,3.81938 -43.4766,11.45703 -11.946,7.4418 -21.0515,18.1151 -27.3183,32.01954 -6.2668,13.70859 -9.4004,29.7671 -9.4004,48.17578 0,18.21284 3.2308,34.27135 9.6934,48.17578 6.4626,13.70859 15.9606,24.38189 28.4941,32.01953 12.7294,7.63765 28.1041,11.45508 46.1211,11.45508 14.8836,0 27.5151,-2.8383 37.8945,-8.51758 10.5752,-5.67927 18.9949,-13.61139 25.2617,-23.79492 h 12.3379 v 28.78711 h 49.3516 v -48.17578 h -24.0879 V 75.52734 Z M 87.865213,142.5039 c -26.438,0 -47.29503,8.12638 -62.57032,24.38086 -15.07945,16.25448 -22.6191397,38.09063 -22.6191397,65.50782 0,18.21284 3.32982,34.07514 9.9882897,47.58789 6.85429,13.51275 16.35224,23.99179 28.49414,31.43359 12.33773,7.24598 26.82846,10.86719 43.4746,10.86719 12.92525,0 23.990977,-2.44782 33.195317,-7.34375 9.40017,-4.89592 16.74365,-12.04318 22.03125,-21.44336 h 1.46875 v 23.5 c 0,13.12108 -4.11273,23.10859 -12.33789,29.96289 -8.02932,7.05014 -19.68175,10.57617 -34.957027,10.57617 -22.52126,0 -36.13195,-7.24634 -40.83204,-21.73828 H 1.4999733 c 3.13339,18.99619 12.9266497,33.78223 29.3769597,44.35743 16.64614,10.77103 38.187,16.15624 64.625,16.15624 29.963057,1e-5 52.974557,-6.85391 69.033197,-20.5625 16.05864,-13.70859 24.08789,-33.09692 24.08789,-58.16406 V 194.20508 h 24.08789 v -48.17579 h -49.35156 v 28.78712 h -12.33789 c -6.26679,-10.18353 -14.68653,-18.11371 -25.26172,-23.79298 -10.37936,-5.67928 -23.01092,-8.51953 -37.894527,-8.51953 z m 237.648427,0 c -19.38786,0 -36.23124,3.7203 -50.52734,11.16211 -14.29611,7.44181 -25.35988,18.01797 -33.19336,31.72657 -7.63764,13.70859 -11.45703,29.86423 -11.45703,48.46875 0,18.80035 3.91652,35.05508 11.75,48.76367 7.83349,13.70859 18.80012,24.38189 32.90039,32.01953 14.2961,7.44181 31.0404,11.16211 50.23242,11.16211 19.19206,0 35.83924,-3.7203 49.93944,-11.16211 14.2961,-7.44181 25.2628,-18.01797 32.9004,-31.72656 7.6377,-13.90443 11.457,-30.1572 11.457,-48.76172 0,-18.80035 -3.8193,-35.05508 -11.457,-48.76367 -7.6376,-13.7086 -18.5071,-24.28476 -32.6074,-31.72656 -14.1003,-7.44182 -30.7455,-11.16212 -49.93752,-11.16212 z M 96.677713,184.80469 c 13.316917,0 23.793987,3.7203 31.431637,11.16211 7.83348,7.24597 11.75,17.23348 11.75,29.96289 v 12.33789 c 0,12.92525 -3.81939,23.10897 -11.45703,30.55078 -7.63765,7.44181 -18.21186,11.16211 -31.724607,11.16211 -14.2961,0 -25.45897,-4.11078 -33.48828,-12.33594 -7.83348,-8.22515 -11.75,-19.87758 -11.75,-34.95703 0,-15.07945 3.91652,-26.83096 11.75,-35.25195 8.02931,-8.42099 19.19218,-12.63086 33.48828,-12.63086 z m 228.541007,0 c 14.68779,0 25.94974,4.40608 33.78324,13.21875 7.8334,8.61683 11.75,20.5626 11.75,35.83789 0,15.27529 -3.9166,27.41728 -11.75,36.42578 -7.8335,8.81267 -19.09545,13.21875 -33.78324,13.21875 -14.88361,0 -26.33982,-4.40608 -34.36914,-13.21875 -7.83348,-9.0085 -11.75,-21.15049 -11.75,-36.42578 0,-15.27529 3.91652,-27.22106 11.75,-35.83789 8.02932,-8.81267 19.48553,-13.21875 34.36914,-13.21875 z m 296.40044,0 c 13.1211,0 23.501,3.7203 31.1386,11.16211 7.8336,7.24597 11.75,17.33257 11.75,30.25781 v 15.86133 c 0,12.92524 -3.9164,23.10897 -11.75,30.55078 -7.6376,7.24597 -18.0175,10.86914 -31.1386,10.86914 -14.8836,0 -26.0465,-4.40608 -33.4883,-13.21875 -7.4419,-8.81267 -11.1621,-20.85557 -11.1621,-36.13086 0,-15.27528 3.7202,-27.32014 11.1621,-36.13281 7.4418,-8.81267 18.6047,-13.21875 33.4883,-13.21875 z" />
</svg>
