<?xml version="1.0" encoding="UTF-8" standalone="no"?>
<svg
	width="2048"
	height="512"
	viewBox="0 0 2048 512"
	version="1.1"
	xmlns:xlink="http://www.w3.org/1999/xlink"
	xmlns="http://www.w3.org/2000/svg"
	xmlns:svg="http://www.w3.org/2000/svg"
>
	<defs>
		<radialGradient id="fgGradient" cx="100%" cy="100%" r="141.42%">
			<stop offset="0%" stop-color="#000" />
			<stop offset="100%" stop-color="#111" />
		</radialGradient>
		<radialGradient id="fgGradientReversed" href="#fgGradient" gradientTransform="scale(-1)" />
		<filter id="fgShadow" x="-50%" y="-50%" width="2" height="2">
			<feDropShadow dx="1" dy="1" stdDeviation="1.5" flood-color="#fff" />
			<feDropShadow dx="0" dy="0" stdDeviation="24" flood-color="#0002" />
		</filter>
	</defs>
	<style>
		path {
			stroke: url(#fgGradientReversed);
			stroke-width: 3px;
			stroke-linecap: round;
			stroke-linejoin: round;
			fill: url(#fgGradient);
			filter: url(#fgShadow);
		}

		text {
			font-weight: bold;
			font-size: 352.507px;
			line-height: 1.25;
			font-family: 'Funnel Display';
			-inkscape-font-specification: 'Funnel Display Bold';
			fill: #f00;
			display: none;
		}
	</style>
	<text x="104.25296" y="368.31012">Caret Labs</text>
	<path
		d="M238.895822 372.71646q-36.42572 0-63.74501-14.98155-27.02553-15.2753-42.00708-42.88835-14.98155-27.9068-14.98155-64.92004 0-37.60074 14.98155-65.21379t42.00708-42.59459q27.31929-15.27531 63.74501-15.27531 29.37559 0 51.99479 10.28146 22.91295 9.98769 37.30699 28.78807 14.68779 18.80037 18.50661 44.94464h-51.70102q-3.23132-19.09413-18.21286-29.37558-14.98155-10.57521-37.89451-10.57521-32.90065 0-51.99478 20.85666-19.09412 20.85666-19.09412 58.16365 0 37.01324 19.09412 58.16366 19.09413 20.85666 51.99478 20.85666 22.91296 0 37.89451-10.57521 14.98154-10.57521 18.21286-29.66934h51.70102q-3.81882 26.14427-18.50661 45.2384-14.39404 18.80037-37.30699 28.78807-22.6192 9.9877-51.99479 9.9877M427.192782 371.54143q-31.13812 0-48.76346-14.98154-17.62535-15.27531-17.62535-39.9508 0-26.14426 18.21286-40.24454t52.28853-14.10028h50.52601v-6.75639q0-28.49431-34.07568-28.49431-29.66934 0-35.83821 20.56291h-48.46971q5.87511-29.08183 27.31929-44.06338 21.44418-14.98154 56.98863-14.98154 39.36328 0 59.92619 17.62534 20.85666 17.62535 20.85666 51.40727v62.56999h22.91296v48.17596h-49.35098v-28.78807h-12.33775q-9.10643 15.2753-24.38173 23.79422-15.2753 8.22516-38.18826 8.22516m7.3439-37.01323q13.80652 0 24.38173-4.99385t16.74408-13.21901q6.16888-8.51892 6.16888-19.09413v-2.6438h-48.17596q-26.43802 0-26.43802 19.68164 0 9.69394 7.34389 14.98155 7.3439 5.2876 19.9754 5.2876M588.169902 368.31012V240.23258h-24.08798v-48.17595h49.35098v34.66318h12.33775q7.05014-18.50661 22.32544-27.61304 15.2753-9.10644 34.36943-9.10644h14.98155v42.30084h-17.03784q-22.91296 0-33.78192 12.92526-10.57521 12.92526-10.57521 34.07568v89.00801zM799.086012 371.83519q-28.49432 0-49.64474-11.16272-21.15041-11.45648-32.60689-32.01939-11.45648-20.85666-11.45648-49.05722t11.16272-48.46971q11.16272-20.56291 31.72563-31.43187 20.85667-11.16272 49.05722-11.16272 27.61305 0 47.29469 10.57521 19.9754 10.5752 30.55061 30.25684 10.57521 19.68165 10.57521 47.00094v16.45032h-133.6589q2.93756 19.68164 14.98154 29.9631 12.04399 10.28145 31.72563 10.28145 15.56906 0 24.67549-5.2876 9.10643-5.28761 12.92526-16.15657h48.76347q-5.87512 28.20055-28.49432 44.35713-22.6192 15.86281-57.57614 15.86281m-45.82591-111.33346h85.7767q-2.35005-16.74408-12.92526-24.96924-10.5752-8.51892-28.49431-8.51892t-29.37558 8.51892q-11.16272 8.51892-14.98155 24.96924M970.639082 368.31012q-18.8004 0-29.3756-9.40019-10.2815-9.69394-10.2815-29.37558v-99.28947h-30.25681v-38.18825h30.84431v-52.87605h47.5885v52.87605h40.832v38.18825h-40.2445v99.87698h44.3571v38.18826zM1139.547782 368.31012V130.3679h49.6447v194.46636h122.4962v43.47586zM1394.821482 371.54143q-31.1381 0-48.7635-14.98154-17.6253-15.27531-17.6253-39.9508 0-26.14426 18.2128-40.24454 18.2129-14.10028 52.2886-14.10028h50.526v-6.75639q0-28.49431-34.0757-28.49431-29.6694 0-35.8382 20.56291h-48.4697q5.8751-29.08183 27.3193-44.06338 21.4441-14.98154 56.9886-14.98154 39.3633 0 59.9262 17.62534 20.8566 17.62535 20.8566 51.40727v62.56999h22.913v48.17596h-49.351v-28.78807h-12.3377q-9.1065 15.2753-24.3818 23.79422-15.2753 8.22516-38.1882 8.22516m7.3439-37.01323q13.8065 0 24.3817-4.99385t16.7441-13.21901q6.1689-8.51892 6.1689-19.09413v-2.6438h-48.176q-26.438 0-26.438 19.68164 0 9.69394 7.3439 14.98155 7.3439 5.2876 19.9754 5.2876M1662.138582 371.83519q-22.3254 0-38.1882-8.51892-15.5691-8.51892-24.9693-23.79422h-12.3377v28.78807h-49.351v-48.17596h24.088V121.55523h48.7634v94.58937h1.1751q7.9314-13.21901 21.7379-20.26915 13.8065-7.34389 33.1944-7.34389 25.5568 0 43.4759 11.45647 17.9191 11.16272 27.3192 32.01939 9.4002 20.56291 9.4002 48.17595 0 27.31929-9.6939 48.17596-9.6939 20.56291-28.4943 32.01938-18.8004 11.45648-46.1197 11.45648m-9.1064-42.30084q22.3254 0 33.4881-13.21901 11.1628-13.21901 11.1628-36.13197 0-22.91295-11.1628-36.13196-11.1627-13.21902-33.4881-13.21902-19.6817 0-31.4319 11.16273-11.4565 10.86896-11.4565 30.25685v15.86281q0 19.38788 11.4565 30.55061 11.7502 10.86896 31.4319 10.86896M1852.785482 371.83519q-38.7758 0-61.395-16.15657-22.3255-16.45033-24.088-45.82591h47.0009q2.3501 12.6315 12.044 18.80037 9.9877 6.16888 28.4943 6.16888 30.2569 0 30.2569-16.74409 0-6.75638-4.7001-10.57521-4.4063-4.11258-14.9815-6.16887l-39.3633-7.63765q-52.8761-10.28145-52.8761-49.64473 0-25.263 20.2692-40.24455 20.2691-15.2753 56.1073-15.2753 35.5445 0 56.4012 15.56905 20.8566 15.56906 22.9129 43.47587h-47.0009q-3.2313-12.33775-11.4565-17.91911t-23.7942-5.58136q-13.5128 0-20.5629 4.11258-7.0502 3.81883-7.0502 11.75023 0 5.58137 4.4064 9.40019 4.4063 3.81883 13.5127 5.58136l40.2446 7.63765q27.613 5.58136 40.5383 17.91911 12.9252 12.33774 12.9252 33.48816 0 27.31929-20.2691 42.5946-19.9754 15.2753-57.5761 15.2753"
	/>
</svg>
